<?xml version="1.0" encoding="utf-8"?>
<svg xmlns="http://www.w3.org/2000/svg" version="1.1" width="1500" height="1500">
<title> TPLOGO SVG FLEITZ </title>
<desc> Du LOGO. </desc>
<line x1="500" y1="500" x2="500" y2="495" stroke="blue" stroke-width="5" stroke-linecap="round" />
<line x1="500" y1="495" x2="495" y2="494" stroke="blue" stroke-width="5" stroke-linecap="round" />
<line x1="495" y1="494" x2="494" y2="498" stroke="blue" stroke-width="5" stroke-linecap="round" />
<line x1="494" y1="498" x2="498" y2="498" stroke="blue" stroke-width="5" stroke-linecap="round" />
<line x1="498" y1="498" x2="498" y2="493" stroke="blue" stroke-width="5" stroke-linecap="round" />
<line x1="498" y1="493" x2="493" y2="492" stroke="blue" stroke-width="5" stroke-linecap="round" />
<line x1="493" y1="492" x2="492" y2="496" stroke="blue" stroke-width="5" stroke-linecap="round" />
<line x1="492" y1="496" x2="496" y2="496" stroke="blue" stroke-width="5" stroke-linecap="round" />
<line x1="496" y1="496" x2="496" y2="491" stroke="blue" stroke-width="5" stroke-linecap="round" />
<line x1="496" y1="491" x2="491" y2="490" stroke="blue" stroke-width="5" stroke-linecap="round" />
<line x1="491" y1="490" x2="490" y2="494" stroke="blue" stroke-width="5" stroke-linecap="round" />
<line x1="490" y1="494" x2="494" y2="494" stroke="blue" stroke-width="5" stroke-linecap="round" />
<line x1="494" y1="494" x2="494" y2="489" stroke="blue" stroke-width="5" stroke-linecap="round" />
<line x1="494" y1="489" x2="489" y2="488" stroke="blue" stroke-width="5" stroke-linecap="round" />
<line x1="489" y1="488" x2="488" y2="492" stroke="blue" stroke-width="5" stroke-linecap="round" />
<line x1="488" y1="492" x2="492" y2="492" stroke="blue" stroke-width="5" stroke-linecap="round" />
<line x1="492" y1="492" x2="492" y2="487" stroke="blue" stroke-width="5" stroke-linecap="round" />
<line x1="492" y1="487" x2="487" y2="486" stroke="blue" stroke-width="5" stroke-linecap="round" />
<line x1="487" y1="486" x2="486" y2="490" stroke="blue" stroke-width="5" stroke-linecap="round" />
<line x1="486" y1="490" x2="490" y2="490" stroke="blue" stroke-width="5" stroke-linecap="round" />
<line x1="490" y1="490" x2="490" y2="485" stroke="blue" stroke-width="5" stroke-linecap="round" />
<line x1="490" y1="485" x2="485" y2="484" stroke="blue" stroke-width="5" stroke-linecap="round" />
<line x1="485" y1="484" x2="484" y2="488" stroke="blue" stroke-width="5" stroke-linecap="round" />
<line x1="484" y1="488" x2="488" y2="488" stroke="blue" stroke-width="5" stroke-linecap="round" />
<line x1="488" y1="488" x2="488" y2="483" stroke="blue" stroke-width="5" stroke-linecap="round" />
<line x1="488" y1="483" x2="483" y2="482" stroke="blue" stroke-width="5" stroke-linecap="round" />
<line x1="483" y1="482" x2="482" y2="486" stroke="blue" stroke-width="5" stroke-linecap="round" />
<line x1="482" y1="486" x2="486" y2="486" stroke="blue" stroke-width="5" stroke-linecap="round" />
<line x1="486" y1="486" x2="486" y2="481" stroke="blue" stroke-width="5" stroke-linecap="round" />
<line x1="486" y1="481" x2="481" y2="480" stroke="blue" stroke-width="5" stroke-linecap="round" />
<line x1="481" y1="480" x2="480" y2="484" stroke="blue" stroke-width="5" stroke-linecap="round" />
<line x1="480" y1="484" x2="484" y2="484" stroke="blue" stroke-width="5" stroke-linecap="round" />
<line x1="484" y1="484" x2="484" y2="479" stroke="blue" stroke-width="5" stroke-linecap="round" />
<line x1="484" y1="479" x2="479" y2="478" stroke="blue" stroke-width="5" stroke-linecap="round" />
<line x1="479" y1="478" x2="478" y2="482" stroke="blue" stroke-width="5" stroke-linecap="round" />
<line x1="478" y1="482" x2="482" y2="482" stroke="blue" stroke-width="5" stroke-linecap="round" />
<line x1="482" y1="482" x2="482" y2="477" stroke="blue" stroke-width="5" stroke-linecap="round" />
<line x1="482" y1="477" x2="477" y2="476" stroke="blue" stroke-width="5" stroke-linecap="round" />
<line x1="477" y1="476" x2="476" y2="480" stroke="blue" stroke-width="5" stroke-linecap="round" />
<line x1="476" y1="480" x2="480" y2="480" stroke="blue" stroke-width="5" stroke-linecap="round" />
<line x1="480" y1="480" x2="480" y2="475" stroke="blue" stroke-width="5" stroke-linecap="round" />
<line x1="480" y1="475" x2="475" y2="474" stroke="blue" stroke-width="5" stroke-linecap="round" />
<line x1="475" y1="474" x2="474" y2="478" stroke="blue" stroke-width="5" stroke-linecap="round" />
<line x1="474" y1="478" x2="478" y2="478" stroke="blue" stroke-width="5" stroke-linecap="round" />
<line x1="478" y1="478" x2="478" y2="473" stroke="blue" stroke-width="5" stroke-linecap="round" />
<line x1="478" y1="473" x2="473" y2="472" stroke="blue" stroke-width="5" stroke-linecap="round" />
<line x1="473" y1="472" x2="472" y2="476" stroke="blue" stroke-width="5" stroke-linecap="round" />
<line x1="472" y1="476" x2="476" y2="476" stroke="blue" stroke-width="5" stroke-linecap="round" />
<line x1="476" y1="476" x2="476" y2="471" stroke="blue" stroke-width="5" stroke-linecap="round" />
<line x1="476" y1="471" x2="471" y2="470" stroke="blue" stroke-width="5" stroke-linecap="round" />
<line x1="471" y1="470" x2="470" y2="474" stroke="blue" stroke-width="5" stroke-linecap="round" />
<line x1="470" y1="474" x2="474" y2="474" stroke="blue" stroke-width="5" stroke-linecap="round" />
<line x1="474" y1="474" x2="474" y2="469" stroke="blue" stroke-width="5" stroke-linecap="round" />
<line x1="474" y1="469" x2="469" y2="468" stroke="blue" stroke-width="5" stroke-linecap="round" />
<line x1="469" y1="468" x2="468" y2="472" stroke="blue" stroke-width="5" stroke-linecap="round" />
<line x1="468" y1="472" x2="472" y2="472" stroke="blue" stroke-width="5" stroke-linecap="round" />
<line x1="472" y1="472" x2="472" y2="467" stroke="blue" stroke-width="5" stroke-linecap="round" />
<line x1="472" y1="467" x2="467" y2="466" stroke="blue" stroke-width="5" stroke-linecap="round" />
<line x1="467" y1="466" x2="466" y2="470" stroke="blue" stroke-width="5" stroke-linecap="round" />
<line x1="466" y1="470" x2="470" y2="470" stroke="blue" stroke-width="5" stroke-linecap="round" />
<line x1="470" y1="470" x2="470" y2="465" stroke="blue" stroke-width="5" stroke-linecap="round" />
<line x1="470" y1="465" x2="465" y2="464" stroke="blue" stroke-width="5" stroke-linecap="round" />
<line x1="465" y1="464" x2="464" y2="468" stroke="blue" stroke-width="5" stroke-linecap="round" />
<line x1="464" y1="468" x2="468" y2="468" stroke="blue" stroke-width="5" stroke-linecap="round" />
<line x1="468" y1="468" x2="468" y2="463" stroke="blue" stroke-width="5" stroke-linecap="round" />
<line x1="468" y1="463" x2="463" y2="462" stroke="blue" stroke-width="5" stroke-linecap="round" />
<line x1="463" y1="462" x2="462" y2="466" stroke="blue" stroke-width="5" stroke-linecap="round" />
<line x1="462" y1="466" x2="466" y2="466" stroke="blue" stroke-width="5" stroke-linecap="round" />
<line x1="466" y1="466" x2="466" y2="461" stroke="blue" stroke-width="5" stroke-linecap="round" />
<line x1="466" y1="461" x2="461" y2="460" stroke="blue" stroke-width="5" stroke-linecap="round" />
<line x1="461" y1="460" x2="460" y2="464" stroke="blue" stroke-width="5" stroke-linecap="round" />
<line x1="460" y1="464" x2="464" y2="464" stroke="blue" stroke-width="5" stroke-linecap="round" />
<line x1="464" y1="464" x2="464" y2="459" stroke="blue" stroke-width="5" stroke-linecap="round" />
<line x1="464" y1="459" x2="459" y2="458" stroke="blue" stroke-width="5" stroke-linecap="round" />
<line x1="459" y1="458" x2="458" y2="462" stroke="blue" stroke-width="5" stroke-linecap="round" />
<line x1="458" y1="462" x2="462" y2="462" stroke="blue" stroke-width="5" stroke-linecap="round" />
<line x1="462" y1="462" x2="462" y2="457" stroke="blue" stroke-width="5" stroke-linecap="round" />
<line x1="462" y1="457" x2="457" y2="456" stroke="blue" stroke-width="5" stroke-linecap="round" />
<line x1="457" y1="456" x2="456" y2="460" stroke="blue" stroke-width="5" stroke-linecap="round" />
<line x1="456" y1="460" x2="460" y2="460" stroke="blue" stroke-width="5" stroke-linecap="round" />
<line x1="460" y1="460" x2="460" y2="455" stroke="blue" stroke-width="5" stroke-linecap="round" />
<line x1="460" y1="455" x2="455" y2="454" stroke="blue" stroke-width="5" stroke-linecap="round" />
<line x1="455" y1="454" x2="454" y2="458" stroke="blue" stroke-width="5" stroke-linecap="round" />
<line x1="454" y1="458" x2="458" y2="458" stroke="blue" stroke-width="5" stroke-linecap="round" />
<line x1="458" y1="458" x2="458" y2="453" stroke="blue" stroke-width="5" stroke-linecap="round" />
<line x1="458" y1="453" x2="453" y2="452" stroke="blue" stroke-width="5" stroke-linecap="round" />
<line x1="453" y1="452" x2="452" y2="456" stroke="blue" stroke-width="5" stroke-linecap="round" />
<line x1="452" y1="456" x2="456" y2="456" stroke="blue" stroke-width="5" stroke-linecap="round" />
<line x1="456" y1="456" x2="456" y2="451" stroke="blue" stroke-width="5" stroke-linecap="round" />
<line x1="456" y1="451" x2="451" y2="450" stroke="blue" stroke-width="5" stroke-linecap="round" />
<line x1="451" y1="450" x2="450" y2="454" stroke="blue" stroke-width="5" stroke-linecap="round" />
<line x1="450" y1="454" x2="454" y2="454" stroke="blue" stroke-width="5" stroke-linecap="round" />
<line x1="454" y1="454" x2="454" y2="449" stroke="blue" stroke-width="5" stroke-linecap="round" />
<line x1="454" y1="449" x2="449" y2="448" stroke="blue" stroke-width="5" stroke-linecap="round" />
<line x1="449" y1="448" x2="448" y2="452" stroke="blue" stroke-width="5" stroke-linecap="round" />
<line x1="448" y1="452" x2="452" y2="452" stroke="blue" stroke-width="5" stroke-linecap="round" />
<line x1="452" y1="452" x2="452" y2="447" stroke="blue" stroke-width="5" stroke-linecap="round" />
<line x1="452" y1="447" x2="447" y2="446" stroke="blue" stroke-width="5" stroke-linecap="round" />
<line x1="447" y1="446" x2="446" y2="450" stroke="blue" stroke-width="5" stroke-linecap="round" />
<line x1="446" y1="450" x2="450" y2="450" stroke="blue" stroke-width="5" stroke-linecap="round" />
<line x1="450" y1="450" x2="450" y2="445" stroke="blue" stroke-width="5" stroke-linecap="round" />
<line x1="450" y1="445" x2="445" y2="444" stroke="blue" stroke-width="5" stroke-linecap="round" />
<line x1="445" y1="444" x2="444" y2="448" stroke="blue" stroke-width="5" stroke-linecap="round" />
<line x1="444" y1="448" x2="448" y2="448" stroke="blue" stroke-width="5" stroke-linecap="round" />
<line x1="448" y1="448" x2="448" y2="443" stroke="blue" stroke-width="5" stroke-linecap="round" />
<line x1="448" y1="443" x2="443" y2="442" stroke="blue" stroke-width="5" stroke-linecap="round" />
<line x1="443" y1="442" x2="442" y2="446" stroke="blue" stroke-width="5" stroke-linecap="round" />
<line x1="442" y1="446" x2="446" y2="446" stroke="blue" stroke-width="5" stroke-linecap="round" />
<line x1="446" y1="446" x2="446" y2="441" stroke="blue" stroke-width="5" stroke-linecap="round" />
<line x1="446" y1="441" x2="441" y2="440" stroke="blue" stroke-width="5" stroke-linecap="round" />
<line x1="441" y1="440" x2="440" y2="444" stroke="blue" stroke-width="5" stroke-linecap="round" />
<line x1="440" y1="444" x2="444" y2="444" stroke="blue" stroke-width="5" stroke-linecap="round" />
<line x1="444" y1="444" x2="444" y2="439" stroke="blue" stroke-width="5" stroke-linecap="round" />
<line x1="444" y1="439" x2="439" y2="438" stroke="blue" stroke-width="5" stroke-linecap="round" />
<line x1="439" y1="438" x2="438" y2="442" stroke="blue" stroke-width="5" stroke-linecap="round" />
<line x1="438" y1="442" x2="442" y2="442" stroke="blue" stroke-width="5" stroke-linecap="round" />
<line x1="442" y1="442" x2="442" y2="437" stroke="blue" stroke-width="5" stroke-linecap="round" />
<line x1="442" y1="437" x2="437" y2="436" stroke="blue" stroke-width="5" stroke-linecap="round" />
<line x1="437" y1="436" x2="436" y2="440" stroke="blue" stroke-width="5" stroke-linecap="round" />
<line x1="436" y1="440" x2="440" y2="440" stroke="blue" stroke-width="5" stroke-linecap="round" />
<line x1="440" y1="440" x2="440" y2="435" stroke="blue" stroke-width="5" stroke-linecap="round" />
<line x1="440" y1="435" x2="435" y2="434" stroke="blue" stroke-width="5" stroke-linecap="round" />
<line x1="435" y1="434" x2="434" y2="438" stroke="blue" stroke-width="5" stroke-linecap="round" />
<line x1="434" y1="438" x2="438" y2="438" stroke="blue" stroke-width="5" stroke-linecap="round" />
<line x1="438" y1="438" x2="438" y2="433" stroke="blue" stroke-width="5" stroke-linecap="round" />
<line x1="438" y1="433" x2="433" y2="432" stroke="blue" stroke-width="5" stroke-linecap="round" />
<line x1="433" y1="432" x2="432" y2="436" stroke="blue" stroke-width="5" stroke-linecap="round" />
<line x1="432" y1="436" x2="436" y2="436" stroke="blue" stroke-width="5" stroke-linecap="round" />
<line x1="436" y1="436" x2="436" y2="431" stroke="blue" stroke-width="5" stroke-linecap="round" />
<line x1="436" y1="431" x2="431" y2="430" stroke="blue" stroke-width="5" stroke-linecap="round" />
<line x1="431" y1="430" x2="430" y2="434" stroke="blue" stroke-width="5" stroke-linecap="round" />
<line x1="430" y1="434" x2="434" y2="434" stroke="blue" stroke-width="5" stroke-linecap="round" />
<line x1="434" y1="434" x2="434" y2="429" stroke="blue" stroke-width="5" stroke-linecap="round" />
<line x1="434" y1="429" x2="429" y2="428" stroke="blue" stroke-width="5" stroke-linecap="round" />
<line x1="429" y1="428" x2="428" y2="432" stroke="blue" stroke-width="5" stroke-linecap="round" />
<line x1="428" y1="432" x2="432" y2="432" stroke="blue" stroke-width="5" stroke-linecap="round" />
<line x1="432" y1="432" x2="432" y2="427" stroke="blue" stroke-width="5" stroke-linecap="round" />
<line x1="432" y1="427" x2="427" y2="426" stroke="blue" stroke-width="5" stroke-linecap="round" />
<line x1="427" y1="426" x2="426" y2="430" stroke="blue" stroke-width="5" stroke-linecap="round" />
<line x1="426" y1="430" x2="430" y2="430" stroke="blue" stroke-width="5" stroke-linecap="round" />
<line x1="430" y1="430" x2="430" y2="425" stroke="blue" stroke-width="5" stroke-linecap="round" />
<line x1="430" y1="425" x2="425" y2="424" stroke="blue" stroke-width="5" stroke-linecap="round" />
<line x1="425" y1="424" x2="424" y2="428" stroke="blue" stroke-width="5" stroke-linecap="round" />
<line x1="424" y1="428" x2="428" y2="428" stroke="blue" stroke-width="5" stroke-linecap="round" />
<line x1="428" y1="428" x2="428" y2="423" stroke="blue" stroke-width="5" stroke-linecap="round" />
<line x1="428" y1="423" x2="423" y2="422" stroke="blue" stroke-width="5" stroke-linecap="round" />
<line x1="423" y1="422" x2="422" y2="426" stroke="blue" stroke-width="5" stroke-linecap="round" />
<line x1="422" y1="426" x2="426" y2="426" stroke="blue" stroke-width="5" stroke-linecap="round" />
<line x1="426" y1="426" x2="426" y2="421" stroke="blue" stroke-width="5" stroke-linecap="round" />
<line x1="426" y1="421" x2="421" y2="420" stroke="blue" stroke-width="5" stroke-linecap="round" />
<line x1="421" y1="420" x2="420" y2="424" stroke="blue" stroke-width="5" stroke-linecap="round" />
<line x1="420" y1="424" x2="424" y2="424" stroke="blue" stroke-width="5" stroke-linecap="round" />
<line x1="424" y1="424" x2="424" y2="419" stroke="blue" stroke-width="5" stroke-linecap="round" />
<line x1="424" y1="419" x2="419" y2="418" stroke="blue" stroke-width="5" stroke-linecap="round" />
<line x1="419" y1="418" x2="418" y2="422" stroke="blue" stroke-width="5" stroke-linecap="round" />
<line x1="418" y1="422" x2="422" y2="422" stroke="blue" stroke-width="5" stroke-linecap="round" />
<line x1="422" y1="422" x2="422" y2="417" stroke="blue" stroke-width="5" stroke-linecap="round" />
<line x1="422" y1="417" x2="417" y2="416" stroke="blue" stroke-width="5" stroke-linecap="round" />
<line x1="417" y1="416" x2="416" y2="420" stroke="blue" stroke-width="5" stroke-linecap="round" />
<line x1="416" y1="420" x2="420" y2="420" stroke="blue" stroke-width="5" stroke-linecap="round" />
<line x1="420" y1="420" x2="420" y2="415" stroke="blue" stroke-width="5" stroke-linecap="round" />
<line x1="420" y1="415" x2="415" y2="414" stroke="blue" stroke-width="5" stroke-linecap="round" />
<line x1="415" y1="414" x2="414" y2="418" stroke="blue" stroke-width="5" stroke-linecap="round" />
<line x1="414" y1="418" x2="418" y2="418" stroke="blue" stroke-width="5" stroke-linecap="round" />
<line x1="418" y1="418" x2="418" y2="413" stroke="blue" stroke-width="5" stroke-linecap="round" />
<line x1="418" y1="413" x2="413" y2="412" stroke="blue" stroke-width="5" stroke-linecap="round" />
<line x1="413" y1="412" x2="412" y2="416" stroke="blue" stroke-width="5" stroke-linecap="round" />
<line x1="412" y1="416" x2="416" y2="416" stroke="blue" stroke-width="5" stroke-linecap="round" />
<line x1="416" y1="416" x2="416" y2="411" stroke="blue" stroke-width="5" stroke-linecap="round" />
<line x1="416" y1="411" x2="411" y2="410" stroke="blue" stroke-width="5" stroke-linecap="round" />
<line x1="411" y1="410" x2="410" y2="414" stroke="blue" stroke-width="5" stroke-linecap="round" />
<line x1="410" y1="414" x2="414" y2="414" stroke="blue" stroke-width="5" stroke-linecap="round" />
<line x1="414" y1="414" x2="414" y2="409" stroke="blue" stroke-width="5" stroke-linecap="round" />
<line x1="414" y1="409" x2="409" y2="408" stroke="blue" stroke-width="5" stroke-linecap="round" />
<line x1="409" y1="408" x2="408" y2="412" stroke="blue" stroke-width="5" stroke-linecap="round" />
<line x1="408" y1="412" x2="412" y2="412" stroke="blue" stroke-width="5" stroke-linecap="round" />
<line x1="412" y1="412" x2="412" y2="407" stroke="blue" stroke-width="5" stroke-linecap="round" />
<line x1="412" y1="407" x2="407" y2="406" stroke="blue" stroke-width="5" stroke-linecap="round" />
<line x1="407" y1="406" x2="406" y2="410" stroke="blue" stroke-width="5" stroke-linecap="round" />
<line x1="406" y1="410" x2="410" y2="410" stroke="blue" stroke-width="5" stroke-linecap="round" />
<line x1="410" y1="410" x2="410" y2="405" stroke="blue" stroke-width="5" stroke-linecap="round" />
<line x1="410" y1="405" x2="405" y2="404" stroke="blue" stroke-width="5" stroke-linecap="round" />
<line x1="405" y1="404" x2="404" y2="408" stroke="blue" stroke-width="5" stroke-linecap="round" />
<line x1="404" y1="408" x2="408" y2="408" stroke="blue" stroke-width="5" stroke-linecap="round" />
<line x1="408" y1="408" x2="408" y2="403" stroke="blue" stroke-width="5" stroke-linecap="round" />
<line x1="408" y1="403" x2="403" y2="402" stroke="blue" stroke-width="5" stroke-linecap="round" />
<line x1="403" y1="402" x2="402" y2="406" stroke="blue" stroke-width="5" stroke-linecap="round" />
<line x1="402" y1="406" x2="406" y2="406" stroke="blue" stroke-width="5" stroke-linecap="round" />
<line x1="406" y1="406" x2="406" y2="401" stroke="blue" stroke-width="5" stroke-linecap="round" />
<line x1="406" y1="401" x2="401" y2="400" stroke="blue" stroke-width="5" stroke-linecap="round" />
<line x1="401" y1="400" x2="400" y2="404" stroke="blue" stroke-width="5" stroke-linecap="round" />
<line x1="400" y1="404" x2="404" y2="404" stroke="blue" stroke-width="5" stroke-linecap="round" />
<line x1="404" y1="404" x2="404" y2="399" stroke="blue" stroke-width="5" stroke-linecap="round" />
<line x1="404" y1="399" x2="399" y2="398" stroke="blue" stroke-width="5" stroke-linecap="round" />
<line x1="399" y1="398" x2="398" y2="402" stroke="blue" stroke-width="5" stroke-linecap="round" />
<line x1="398" y1="402" x2="402" y2="402" stroke="blue" stroke-width="5" stroke-linecap="round" />
<line x1="402" y1="402" x2="402" y2="397" stroke="blue" stroke-width="5" stroke-linecap="round" />
<line x1="402" y1="397" x2="397" y2="396" stroke="blue" stroke-width="5" stroke-linecap="round" />
<line x1="397" y1="396" x2="396" y2="400" stroke="blue" stroke-width="5" stroke-linecap="round" />
<line x1="396" y1="400" x2="400" y2="400" stroke="blue" stroke-width="5" stroke-linecap="round" />
<line x1="400" y1="400" x2="400" y2="395" stroke="blue" stroke-width="5" stroke-linecap="round" />
<line x1="400" y1="395" x2="395" y2="394" stroke="blue" stroke-width="5" stroke-linecap="round" />
<line x1="395" y1="394" x2="394" y2="398" stroke="blue" stroke-width="5" stroke-linecap="round" />
<line x1="394" y1="398" x2="398" y2="398" stroke="blue" stroke-width="5" stroke-linecap="round" />
<line x1="398" y1="398" x2="398" y2="393" stroke="blue" stroke-width="5" stroke-linecap="round" />
<line x1="398" y1="393" x2="393" y2="392" stroke="blue" stroke-width="5" stroke-linecap="round" />
<line x1="393" y1="392" x2="392" y2="396" stroke="blue" stroke-width="5" stroke-linecap="round" />
<line x1="392" y1="396" x2="396" y2="396" stroke="blue" stroke-width="5" stroke-linecap="round" />
<line x1="396" y1="396" x2="396" y2="391" stroke="blue" stroke-width="5" stroke-linecap="round" />
<line x1="396" y1="391" x2="391" y2="390" stroke="blue" stroke-width="5" stroke-linecap="round" />
<line x1="391" y1="390" x2="390" y2="394" stroke="blue" stroke-width="5" stroke-linecap="round" />
<line x1="390" y1="394" x2="394" y2="394" stroke="blue" stroke-width="5" stroke-linecap="round" />
<line x1="394" y1="394" x2="394" y2="389" stroke="blue" stroke-width="5" stroke-linecap="round" />
<line x1="394" y1="389" x2="389" y2="388" stroke="blue" stroke-width="5" stroke-linecap="round" />
<line x1="389" y1="388" x2="388" y2="392" stroke="blue" stroke-width="5" stroke-linecap="round" />
<line x1="388" y1="392" x2="392" y2="392" stroke="blue" stroke-width="5" stroke-linecap="round" />
<line x1="392" y1="392" x2="392" y2="387" stroke="blue" stroke-width="5" stroke-linecap="round" />
<line x1="392" y1="387" x2="387" y2="386" stroke="blue" stroke-width="5" stroke-linecap="round" />
<line x1="387" y1="386" x2="386" y2="390" stroke="blue" stroke-width="5" stroke-linecap="round" />
<line x1="386" y1="390" x2="390" y2="390" stroke="blue" stroke-width="5" stroke-linecap="round" />
<line x1="390" y1="390" x2="390" y2="385" stroke="blue" stroke-width="5" stroke-linecap="round" />
<line x1="390" y1="385" x2="385" y2="384" stroke="blue" stroke-width="5" stroke-linecap="round" />
<line x1="385" y1="384" x2="384" y2="388" stroke="blue" stroke-width="5" stroke-linecap="round" />
<line x1="384" y1="388" x2="388" y2="388" stroke="blue" stroke-width="5" stroke-linecap="round" />
<line x1="388" y1="388" x2="388" y2="383" stroke="blue" stroke-width="5" stroke-linecap="round" />
<line x1="388" y1="383" x2="383" y2="382" stroke="blue" stroke-width="5" stroke-linecap="round" />
<line x1="383" y1="382" x2="382" y2="386" stroke="blue" stroke-width="5" stroke-linecap="round" />
<line x1="382" y1="386" x2="386" y2="386" stroke="blue" stroke-width="5" stroke-linecap="round" />
<line x1="386" y1="386" x2="386" y2="381" stroke="blue" stroke-width="5" stroke-linecap="round" />
<line x1="386" y1="381" x2="381" y2="380" stroke="blue" stroke-width="5" stroke-linecap="round" />
<line x1="381" y1="380" x2="380" y2="384" stroke="blue" stroke-width="5" stroke-linecap="round" />
<line x1="380" y1="384" x2="384" y2="384" stroke="blue" stroke-width="5" stroke-linecap="round" />
<line x1="384" y1="384" x2="384" y2="379" stroke="blue" stroke-width="5" stroke-linecap="round" />
<line x1="384" y1="379" x2="379" y2="378" stroke="blue" stroke-width="5" stroke-linecap="round" />
<line x1="379" y1="378" x2="378" y2="382" stroke="blue" stroke-width="5" stroke-linecap="round" />
<line x1="378" y1="382" x2="382" y2="382" stroke="blue" stroke-width="5" stroke-linecap="round" />
<line x1="382" y1="382" x2="382" y2="377" stroke="blue" stroke-width="5" stroke-linecap="round" />
<line x1="382" y1="377" x2="377" y2="376" stroke="blue" stroke-width="5" stroke-linecap="round" />
<line x1="377" y1="376" x2="376" y2="380" stroke="blue" stroke-width="5" stroke-linecap="round" />
<line x1="376" y1="380" x2="380" y2="380" stroke="blue" stroke-width="5" stroke-linecap="round" />
<line x1="380" y1="380" x2="380" y2="375" stroke="blue" stroke-width="5" stroke-linecap="round" />
<line x1="380" y1="375" x2="375" y2="374" stroke="blue" stroke-width="5" stroke-linecap="round" />
<line x1="375" y1="374" x2="374" y2="378" stroke="blue" stroke-width="5" stroke-linecap="round" />
<line x1="374" y1="378" x2="378" y2="378" stroke="blue" stroke-width="5" stroke-linecap="round" />
<line x1="378" y1="378" x2="378" y2="373" stroke="blue" stroke-width="5" stroke-linecap="round" />
<line x1="378" y1="373" x2="373" y2="372" stroke="blue" stroke-width="5" stroke-linecap="round" />
<line x1="373" y1="372" x2="372" y2="376" stroke="blue" stroke-width="5" stroke-linecap="round" />
<line x1="372" y1="376" x2="376" y2="376" stroke="blue" stroke-width="5" stroke-linecap="round" />
<line x1="376" y1="376" x2="376" y2="371" stroke="blue" stroke-width="5" stroke-linecap="round" />
<line x1="376" y1="371" x2="371" y2="370" stroke="blue" stroke-width="5" stroke-linecap="round" />
</svg>